<?xml version="1.0" encoding="utf-8"?>
<!-- Generator: Adobe Illustrator 24.3.0, SVG Export Plug-In . SVG Version: 6.00 Build 0)  -->
<svg version="1.1" id="Layer_1" xmlns="http://www.w3.org/2000/svg" xmlns:xlink="http://www.w3.org/1999/xlink" x="0px" y="0px"
	 viewBox="0 0 599.85 599.76" style="enable-background:new 0 0 599.85 599.76;" xml:space="preserve">
<style type="text/css">
	.st0{fill:none;stroke:#231F20;stroke-width:0.25;stroke-miterlimit:10;}
	.st1{fill:#231F20;}
</style>
<g>
	<circle class="st0" cx="300.04" cy="299.95" r="299.36"/>
	<path class="st1" d="M332,598.11C229.46,608.66,131.65,568.14,66.6,488.18C30.36,443.64,7.75,389.06,1.87,331.94
		C-8.68,229.38,31.84,131.55,111.83,66.5c44.55-36.24,99.13-58.84,156.26-64.71C370.64-8.76,468.46,31.77,533.5,111.76
		c36.23,44.55,58.83,99.13,64.7,156.25c10.54,102.54-29.99,200.35-109.97,265.39C443.69,569.64,389.12,592.24,332,598.11z
		 M331.92,2.68C229.69-7.84,132.16,32.55,67.31,112.28C31.17,156.69,8.63,211.1,2.77,268.06C-7.75,370.3,32.64,467.84,112.38,532.7
		c44.42,36.13,98.83,58.66,155.79,64.52c102.24,10.51,199.77-29.88,264.63-109.62c36.12-44.42,58.66-98.83,64.51-155.78
		c10.51-102.23-29.88-199.75-109.61-264.6C443.29,31.08,388.87,8.54,331.92,2.68z"/>
</g>
</svg>
